<svg viewBox="0 0 760 230" xmlns="http://www.w3.org/2000/svg">
  <defs>
    <radialGradient id="bg" cx="80%" cy="30%" r="90%">
      <stop offset="0%" stop-color="#220a04"/>
      <stop offset="100%" stop-color="#050202"/>
    </radialGradient>
    <linearGradient id="flameGrad" x1="0%" y1="100%" x2="0%" y2="0%">
      <stop offset="0%" stop-color="#ff3d12" stop-opacity="0.95"/>
      <stop offset="55%" stop-color="#ff8a1e" stop-opacity="0.85"/>
      <stop offset="100%" stop-color="#ffd27a" stop-opacity="0"/>
    </linearGradient>
    <linearGradient id="titleGrad" x1="0%" y1="0%" x2="100%" y2="0%">
      <stop offset="0%" stop-color="#ffd9a0"/>
      <stop offset="100%" stop-color="#ff4d1c"/>
    </linearGradient>
    <filter id="glow" x="-60%" y="-60%" width="220%" height="220%">
      <feGaussianBlur stdDeviation="3" result="b"/>
      <feMerge><feMergeNode in="b"/><feMergeNode in="SourceGraphic"/></feMerge>
    </filter>
  </defs>

  <rect x="0" y="0" width="760" height="230" rx="14" fill="url(#bg)"/>
  <rect x="0.75" y="0.75" width="758.5" height="228.5" rx="14" fill="none" stroke="#3d0a05" stroke-width="1.5"/>

  <text x="28" y="38" font-family="'Segoe UI', Helvetica, Arial, sans-serif" font-size="18"
    font-weight="700" fill="url(#titleGrad)" filter="url(#glow)" letter-spacing="1">cursed_stats.exe</text>

  <!-- left column: numbers -->
  <g font-family="'Segoe UI', Helvetica, Arial, sans-serif">
    <text x="28" y="80" font-size="30" font-weight="700" fill="#ffd9a0">225</text>
    <text x="28" y="100" font-size="12" fill="#9c5a3a">contributions / yr</text>

    <text x="28" y="140" font-size="30" font-weight="700" fill="#ff8a3c">3</text>
    <text x="28" y="160" font-size="12" fill="#9c5a3a">current streak (days)</text>

    <text x="28" y="200" font-size="30" font-weight="700" fill="#ffd9a0">6</text>
    <text x="28" y="220" font-size="12" fill="#9c5a3a">longest streak (days)</text>
  </g>

  <!-- center: the responsive flame, height driven by current_streak -->
  <g transform="translate(255,205)" filter="url(#glow)">
    <path d="M -22,0 C -26,-16 4,-13 -6,-29 C 22,-14 18,-5 28,0 Z"
      fill="url(#flameGrad)" opacity="0.65">
      <animate attributeName="d" dur="2.4s" repeatCount="indefinite"
        values="M -22,0 C -26,-16 4,-13 -6,-29 C 22,-14 18,-5 28,0 Z;
                 M -20,0 C -28,-17 6,-12 -4,-30 C 24,-13 16,-6 26,0 Z;
                 M -22,0 C -26,-16 4,-13 -6,-29 C 22,-14 18,-5 28,0 Z"/>
    </path>
  </g>
  <text x="255" y="222" text-anchor="middle" font-family="'Courier New', monospace" font-size="10"
    fill="#9c5a3a">23 repos · 11&#9733;</text>

  <!-- right column: top languages -->
  <g transform="translate(420,55)">
    <text x="0" y="0" font-family="'Segoe UI', Helvetica, Arial, sans-serif" font-size="12.5"
      fill="#ff8a3c" letter-spacing="1">TOP LANGUAGES</text>
    <g transform="translate(0,20)">
        <g transform="translate(0,0)">
          <text x="0" y="13" font-family="'Segoe UI', Helvetica, Arial, sans-serif"
            font-size="12.5" fill="#e8c8a8">Jupyter Notebook</text>
          <text x="300" y="13" text-anchor="end" font-family="'Segoe UI', Helvetica, Arial, sans-serif"
            font-size="12" fill="#9c5a3a">89.7%</text>
          <rect x="0" y="19" width="300" height="6" rx="3" fill="#2a0f08"/>
          <rect x="0" y="19" width="152.5" height="6" rx="3" fill="#DA5B0B"/>
        </g>
        <g transform="translate(0,29)">
          <text x="0" y="13" font-family="'Segoe UI', Helvetica, Arial, sans-serif"
            font-size="12.5" fill="#e8c8a8">TypeScript</text>
          <text x="300" y="13" text-anchor="end" font-family="'Segoe UI', Helvetica, Arial, sans-serif"
            font-size="12" fill="#9c5a3a">3.8%</text>
          <rect x="0" y="19" width="300" height="6" rx="3" fill="#2a0f08"/>
          <rect x="0" y="19" width="6.5" height="6" rx="3" fill="#3178c6"/>
        </g>
        <g transform="translate(0,58)">
          <text x="0" y="13" font-family="'Segoe UI', Helvetica, Arial, sans-serif"
            font-size="12.5" fill="#e8c8a8">Python</text>
          <text x="300" y="13" text-anchor="end" font-family="'Segoe UI', Helvetica, Arial, sans-serif"
            font-size="12" fill="#9c5a3a">3.5%</text>
          <rect x="0" y="19" width="300" height="6" rx="3" fill="#2a0f08"/>
          <rect x="0" y="19" width="6.0" height="6" rx="3" fill="#3572A5"/>
        </g>
        <g transform="translate(0,87)">
          <text x="0" y="13" font-family="'Segoe UI', Helvetica, Arial, sans-serif"
            font-size="12.5" fill="#e8c8a8">HTML</text>
          <text x="300" y="13" text-anchor="end" font-family="'Segoe UI', Helvetica, Arial, sans-serif"
            font-size="12" fill="#9c5a3a">2.0%</text>
          <rect x="0" y="19" width="300" height="6" rx="3" fill="#2a0f08"/>
          <rect x="0" y="19" width="3.4" height="6" rx="3" fill="#e34c26"/>
        </g>
        <g transform="translate(0,116)">
          <text x="0" y="13" font-family="'Segoe UI', Helvetica, Arial, sans-serif"
            font-size="12.5" fill="#e8c8a8">C++</text>
          <text x="300" y="13" text-anchor="end" font-family="'Segoe UI', Helvetica, Arial, sans-serif"
            font-size="12" fill="#9c5a3a">0.4%</text>
          <rect x="0" y="19" width="300" height="6" rx="3" fill="#2a0f08"/>
          <rect x="0" y="19" width="0.7" height="6" rx="3" fill="#f34b7d"/>
        </g>
    </g>
  </g>

  <text x="28" y="218" font-family="'Courier New', monospace" font-size="9.5"
    fill="#5c2f1a" opacity="0.8"></text>
</svg>
